<svg xmlns="http://www.w3.org/2000/svg" viewBox="0 0 64 64">
  <defs>
    <linearGradient id="bg" x1="0" y1="0" x2="0" y2="1">
      <stop offset="0" stop-color="#f8fff2"/>
      <stop offset="1" stop-color="#dcefc3"/>
    </linearGradient>
    <linearGradient id="green" x1="0" y1="0" x2="0" y2="1">
      <stop offset="0" stop-color="#35a751"/>
      <stop offset="1" stop-color="#0d682f"/>
    </linearGradient>
    <linearGradient id="yellow" x1="0" y1="0" x2="1" y2="1">
      <stop offset="0" stop-color="#fff067"/>
      <stop offset="0.5" stop-color="#ffd11f"/>
      <stop offset="1" stop-color="#f1a900"/>
    </linearGradient>
  </defs>
  <rect x="4" y="4" width="56" height="56" rx="14" fill="url(#bg)"/>
  <circle cx="32" cy="32" r="22" fill="url(#green)"/>
  <path d="M47 11c9 7 13 18 10 29-4 13-16 21-30 20 9-3 16-8 20-15 4-8 2-14-5-19-5-4-12-6-18-5 5-8 13-12 23-10z" fill="url(#yellow)"/>
  <path d="M17 52c-8-8-10-20-5-30 5-9 13-14 25-15-8 3-14 7-17 13-4 8-1 16 8 22 4 3 9 5 15 6-7 6-16 8-26 4z" fill="url(#green)"/>
</svg>
